<svg width="150" height="150" viewBox="0 0 150 150" fill="none" xmlns="http://www.w3.org/2000/svg">
<g clip-path="url(#clip0_1_2)">
<rect width="150" height="150" fill="white"/>
<g class="paw-right">
    <line x1="82.097" y1="92.1019" x2="86.4934" y2="100.895" stroke="#F9A139"/>
    <path d="M86.9607 99.5299C86.9607 99.5299 83.848 101.118 82.7489 103.317C82.1355 104.543 82.5643 106.125 82.5643 106.125" stroke="#F9A139" stroke-linecap="round"/>
    <path d="M86.0462 100.019C86.0462 100.019 88.2444 98.9202 90.4427 98.9202C91.5418 98.9202 92.6409 100.019 92.6409 100.019" stroke="#F9A139" stroke-linecap="round"/>
    <path d="M87.1453 105.515L86.0462 98.9202" stroke="#F9A139" stroke-linecap="round"/>
</g>
<g class="paw-left">
    <line x1="73.4006" y1="88.8766" x2="75.3714" y2="98.5078" stroke="#F9A139"/>
    <path d="M76.1761 97.3103C76.1761 97.3103 72.7583 98.0391 71.1276 99.8779C70.2177 100.904 70.2226 102.542 70.2226 102.542" stroke="#F9A139" stroke-linecap="round"/>
    <path d="M75.166 97.5463C75.166 97.5463 77.5738 97.0536 79.6972 97.6226C80.7588 97.907 81.536 99.2532 81.536 99.2532" stroke="#F9A139" stroke-linecap="round"/>
    <path d="M74.8054 103.139L75.4505 96.4847" stroke="#F9A139" stroke-linecap="round"/>
</g>
<path d="M38.8159 68.9047C38.3699 67.8449 43.1811 62.6494 51.974 59.352C60.7669 56.0547 53.4568 65.8327 53.4568 65.8327C53.4568 65.8327 39.2619 69.9645 38.8159 68.9047Z" fill="#FFDD85"/>

<g class="body" fill="#75E6FF">
    <path d="M93.74 88.7478C91.3172 92.3598 80.8504 94.4425 72.8568 91.2265C61.1605 86.5207 58.5683 70.3433 54.4213 69.0414C46.4781 63.7486 53.3222 55.852 54.4213 55.852C58.2774 51.996 61.8657 51.6584 67.3613 56.0548C69.5595 58.2531 82.7489 67.0459 88.2444 69.0414C99.8392 76.8186 97.1214 83.7065 93.74 88.7478Z"/>
    <path d="M54.0057 52.9463C54.9386 52.7574 55.9202 57.6051 55.9202 57.6051L54.0543 57.9829C54.0543 57.9829 53.0728 53.1352 54.0057 52.9463Z"/>
    <path d="M56.3701 51.6583C57.3169 51.5599 58.1214 56.4489 58.1214 56.4489L54.8417 56.79C54.8417 56.79 55.4234 51.7568 56.3701 51.6583Z" />
    <path d="M59.6675 51.6583C60.7666 51.6583 59.6675 56.0548 59.6675 56.0548L56.3701 54.9557C56.3701 54.9557 58.5684 51.6583 59.6675 51.6583Z" />
    <path d="M115.098 98.2862C113.96 100.783 107.57 100.317 100.826 97.2446C94.0812 94.1723 90.3101 86.9789 91.4476 84.4818C92.5851 81.9847 92.4364 84.6197 99.181 87.6921C101.855 88.9101 112.108 89.7461 113.873 91.202C116.561 93.4184 115.784 96.7791 115.098 98.2862Z" />
    <path d="M118.252 88.107C118.038 89.0342 116.519 95.6172 114.442 93.6269C111.326 90.6414 105.604 89.4539 101.423 88.4893C95.5085 87.1245 93.6304 84.5227 94.0608 82.6573C94.4912 80.792 96.9175 83.5835 102.832 84.9483C105.817 85.637 110.468 82.3267 115.414 81.7194C118.807 81.3027 118.465 87.1829 118.252 88.107Z" />
    <path d="M115.647 83.9776C114.491 85.7308 108.711 85.7308 105.243 85.7309C97.1511 85.7308 94.8391 81.4395 94.8391 80.4712C94.8391 79.503 99.4632 82.2244 105.243 80.4712C109.777 79.0959 113.771 76.6551 115.647 76.9648C117.575 77.2831 116.803 82.2244 115.647 83.9776Z" />
</g>
<circle cx="56.3701" cy="58.253" r="1.09911" fill="black"/>
<g class="wings-up" fill="#75E6FF">
    <path d="M78.6113 64.7691C78.6113 64.7691 90.9152 58.7501 99.8984 50.9054C108.882 43.0606 117.92 29.6761 117.92 29.6761L108.648 66.3276L95.1785 77.5408L78.6113 64.7691Z" />
    <path d="M133.475 27.4157C135.555 30.4165 132.387 36.2126 126.4 40.3617C120.413 44.5108 113.873 45.4417 111.794 42.4408C110.65 40.7901 110.797 39.9728 112.425 37.3698C113.26 36.0346 115.741 32.0516 117.92 29.676C119.02 28.577 121.125 27.2044 122.317 26.3787C128.304 22.2296 131.396 24.4148 133.475 27.4157Z" />
    <path d="M138.142 43.4157C139.051 47.3084 133.601 51.9079 125.971 53.6889C123.092 54.361 112.902 55.2078 110.509 54.9557C106.561 54.5397 111.075 52.2893 110.509 49.8655C109.601 45.9728 115.05 41.3733 122.681 39.5922C130.311 37.8111 137.233 39.523 138.142 43.4157Z" />
    <ellipse cx="120.119" cy="59.3521" rx="14.2885" ry="6.59468" />
    <path d="M123.252 68.1868C123.802 71.7872 117.924 75.6714 110.123 76.8624C106.085 77.4789 97.6047 77.7986 94.8391 76.9379C92.2614 76.1358 95.268 74.2367 95.0028 72.4998C94.4531 68.8994 100.331 65.0152 108.132 63.8241C115.933 62.6331 122.703 64.5863 123.252 68.1868Z" />
    <path d="M63.0408 73.8648C63.0408 73.8648 67.485 60.9085 68.2899 49.0093C69.0949 37.1102 66.0221 21.2544 66.0221 21.2544L85.3818 53.7278L83.7865 71.1809L63.0408 73.8648Z" />
    <path d="M75.4226 8.65727C79.0149 9.30869 80.8735 15.6471 79.5738 22.8145C78.2741 29.9819 74.3083 35.2641 70.7159 34.6127C68.7398 34.2544 68.2661 33.5723 67.5764 30.5807C67.2226 29.0462 66.1609 24.4751 66.022 21.2544C66.0221 19.7001 66.5406 17.2405 66.7993 15.8141C68.099 8.64673 71.8302 8.00585 75.4226 8.65727Z" />
    <path d="M90.0362 16.671C93.4313 18.7811 92.8304 25.8866 88.6942 32.5416C87.1335 35.0528 80.5271 42.8567 78.657 44.3703C75.5712 46.8678 77.1717 42.0848 75.0577 40.7709C71.6627 38.6609 72.2635 31.5553 76.3997 24.9003C80.5359 18.2453 86.6412 14.5609 90.0362 16.671Z" />
    <ellipse cx="88.5606" cy="40.6842" rx="14.2885" ry="6.59468" transform="rotate(-45 88.5606 40.6842)" />
    <path d="M97.0235 44.7154C99.958 46.8726 98.548 53.7757 93.8741 60.134C91.455 63.4249 85.6844 69.6476 83.1203 70.9947C80.7304 72.2502 81.5135 68.7813 80.0978 67.7407C77.1632 65.5835 78.5732 58.6804 83.2471 52.3221C87.921 45.9639 94.0889 42.5582 97.0235 44.7154Z" />
</g>
<g class="wings-down" fill="#75E6FF">
    <path d="M64.599 54.3122C64.599 54.3122 61.9692 67.7531 56.7164 78.4594C51.4637 89.1656 40.8743 101.359 40.8743 101.359L73.8773 82.9178L81.2228 67.0071L64.599 54.3122Z" />
    <path d="M42.7162 116.967C46.1529 118.199 50.9318 113.639 53.3902 106.783C55.8485 99.927 55.0554 93.3704 51.6187 92.1386C49.7281 91.461 48.9768 91.8149 46.8837 94.0606C45.81 95.2125 42.6049 98.6401 40.8742 101.359C40.0971 102.705 39.3163 105.095 38.827 106.459C36.3687 113.315 39.2795 115.735 42.7162 116.967Z" />
    <path d="M59.3787 117.333C63.3739 117.203 66.4065 110.75 66.1523 102.92C66.0563 99.9647 64.2374 89.9046 63.3747 87.6591C61.9511 83.9538 60.9455 88.8956 58.4579 88.9765C54.4627 89.1065 51.4301 95.5597 51.6844 103.39C51.9386 111.221 55.3835 117.463 59.3787 117.333Z" />
    <ellipse cx="14.2865" cy="6.59468" rx="14.2865" ry="6.59468" transform="matrix(0.258819 0.965926 0.965926 -0.258819 60.0405 83.7089)" />
    <path d="M79.4526 96.5417C83.0726 96.1407 85.3032 89.4582 84.4349 81.6159C83.9855 77.5568 82.0997 69.2836 80.5527 66.8354C79.1108 64.5535 78.0545 67.9487 76.3081 68.1421C72.6881 68.5431 70.4575 75.2256 71.3258 83.0679C72.1941 90.9102 75.8326 96.9426 79.4526 96.5417Z" />
    <path d="M63.0407 65.3466C63.0407 65.3466 67.4836 78.3016 68.2877 90.1999C69.0918 102.098 66.0181 117.953 66.0181 117.953L85.3786 85.4806L83.7847 68.0288L63.0407 65.3466Z" />
    <path d="M75.417 130.549C79.0092 129.897 80.8681 123.559 79.569 116.392C78.2698 109.225 74.3047 103.944 70.7125 104.595C68.7364 104.954 68.2628 105.636 67.5729 108.627C67.219 110.162 66.1571 114.733 66.018 117.953C66.0179 119.507 66.5363 121.967 66.7948 123.393C68.0939 130.56 71.8248 131.2 75.417 130.549Z" />
    <path d="M90.0302 122.535C93.4252 120.424 92.8249 113.319 88.6894 106.665C87.1289 104.154 80.5236 96.3513 78.6538 94.838C75.5683 92.3408 77.1683 97.1234 75.0544 98.4373C71.6595 100.547 72.2598 107.652 76.3952 114.307C80.5307 120.961 86.6353 124.645 90.0302 122.535Z" />
    <ellipse cx="14.2865" cy="6.59468" rx="14.2865" ry="6.59468" transform="matrix(0.707107 0.707107 0.707107 -0.707107 73.7912 93.0841)" />
    <path d="M97.0189 94.4916C99.9535 92.3343 98.544 85.4318 93.8709 79.0743C91.4522 75.7838 85.6824 69.5619 83.1185 68.2151C80.7289 66.9599 81.5117 70.4284 80.096 71.4691C77.1615 73.6263 78.5709 80.5289 83.244 86.8864C87.9172 93.2439 94.0844 96.6488 97.0189 94.4916Z" />
</g>
</g>
<defs>
<clipPath id="clip0_1_2">
<rect width="150" height="150" fill="white"/>
</clipPath>
</defs>
</svg>
